<?xml version="1.0" standalone="no"?>
<!DOCTYPE svg PUBLIC "-//W3C//DTD SVG 20010904//EN"
 "http://www.w3.org/TR/2001/REC-SVG-20010904/DTD/svg10.dtd">
<svg version="1.0" xmlns="http://www.w3.org/2000/svg"
 width="800.000000pt" height="800.000000pt" viewBox="0 0 800.000000 800.000000"
 preserveAspectRatio="xMidYMid meet">
<metadata>
Created by potrace 1.14, written by Peter Selinger 2001-2017
</metadata>
<g transform="translate(0.000000,800.000000) scale(0.100000,-0.100000)"
fill="#000000" stroke="none">
<path d="M3900 6717 c-3 -3 -27 -7 -55 -10 -27 -4 -62 -9 -77 -12 -16 -3 -40
-7 -54 -10 -34 -5 -163 -44 -189 -55 -11 -5 -45 -19 -75 -31 -63 -24 -149 -68
-168 -86 -7 -7 -17 -13 -22 -13 -29 0 -211 -143 -310 -242 l-36 -37 -130 -6
c-71 -3 -142 -7 -159 -9 -16 -2 -52 -7 -80 -10 -41 -5 -101 -15 -125 -21 -3
-1 -23 -5 -45 -9 -173 -33 -394 -147 -502 -258 -82 -85 -93 -97 -93 -107 0 -5
-4 -11 -9 -13 -20 -7 -102 -167 -141 -274 -19 -52 -43 -139 -56 -199 -2 -11
-6 -30 -9 -42 -12 -55 -15 -69 -20 -108 -4 -22 -8 -51 -10 -65 -29 -187 -38
-455 -40 -1295 -1 -429 -5 -799 -9 -822 -14 -98 -62 -198 -119 -254 -45 -44
-141 -87 -217 -98 -197 -27 -321 21 -437 171 -50 65 -117 202 -159 323 -15 44
-29 82 -30 83 -3 4 -112 -54 -131 -70 -7 -6 -13 -8 -13 -5 0 3 -37 -15 -82
-41 -46 -26 -98 -54 -115 -61 -18 -7 -33 -16 -33 -20 0 -3 -25 -17 -55 -31
-30 -14 -55 -28 -55 -32 0 -5 -6 -8 -14 -8 -23 0 -25 -12 -10 -55 8 -22 16
-49 18 -60 4 -21 60 -179 78 -224 6 -14 12 -28 13 -31 0 -3 7 -16 15 -30 7
-14 12 -26 11 -28 -4 -5 80 -154 122 -216 48 -71 220 -246 242 -246 2 0 24
-13 48 -30 82 -55 275 -129 382 -146 17 -3 41 -7 55 -9 144 -23 400 -24 510
-1 14 3 36 7 50 10 55 11 75 16 124 32 58 19 114 41 136 55 8 5 26 14 39 19
38 17 141 93 198 146 82 78 177 212 230 324 15 32 61 149 69 175 12 40 35 123
39 135 19 77 29 130 40 210 3 25 8 56 10 70 8 57 18 181 21 270 1 52 3 100 3
106 1 8 226 11 789 11 725 1 896 4 992 18 19 3 53 8 75 10 22 3 56 10 75 15
19 5 46 11 60 13 14 3 45 11 70 18 25 7 50 13 55 15 42 10 177 65 259 105 308
154 546 390 701 694 48 93 115 271 129 341 3 10 10 42 16 69 6 28 13 58 15 69
27 129 27 499 0 596 -2 8 -7 35 -10 60 -4 24 -10 51 -14 60 -5 8 -14 40 -21
70 -7 30 -15 60 -19 65 -3 6 -7 19 -8 29 -2 11 -7 24 -11 30 -5 6 -21 43 -37
81 -104 254 -326 515 -569 670 -137 87 -374 187 -501 211 -5 1 -12 3 -15 4 -3
1 -14 4 -25 6 -62 9 -93 14 -115 19 -14 4 -38 8 -55 10 -45 7 -400 16 -405 12z
m-1116 -1942 c144 -31 237 -204 192 -357 -63 -219 -402 -278 -533 -93 -61 87
-63 230 -5 324 68 111 200 159 346 126z"/>
<path d="M5690 6284 c0 -3 18 -27 40 -55 50 -63 137 -204 183 -295 59 -119
135 -341 154 -451 2 -13 6 -34 8 -48 36 -187 38 -444 5 -651 -18 -113 -20
-122 -31 -151 -6 -15 -10 -30 -10 -33 3 -14 -23 -112 -31 -116 -4 -3 -8 -13
-8 -24 0 -38 -104 -274 -173 -392 -20 -35 -76 -121 -94 -147 -84 -116 -123
-161 -228 -266 -157 -157 -312 -270 -497 -361 -40 -20 -85 -43 -100 -51 -16
-8 -28 -11 -28 -7 0 3 -7 0 -16 -7 -9 -7 -21 -14 -28 -15 -6 -2 -50 -16 -98
-33 -49 -16 -88 -28 -88 -25 0 3 -8 0 -18 -5 -19 -10 -160 -42 -202 -46 -14
-1 -34 -5 -45 -8 -65 -20 -452 -27 -715 -13 -132 6 -316 17 -370 21 -25 2 -90
6 -145 9 -55 3 -125 8 -155 10 -213 18 -227 18 -231 -1 -4 -15 -3 -1660 0
-1728 1 -19 9 -20 274 -23 149 -2 347 -5 440 -6 92 -1 171 0 176 3 7 5 12 27
28 126 2 17 6 41 9 55 3 14 9 50 14 80 6 30 12 66 15 80 3 14 8 41 11 60 6 44
23 137 29 170 3 14 7 43 10 65 3 22 8 48 11 57 7 23 11 47 19 109 4 30 8 56
10 59 2 3 6 26 10 50 4 25 11 68 16 95 6 28 12 59 13 70 13 90 30 175 35 184
5 8 94 13 287 16 153 3 385 8 514 10 129 2 363 7 520 10 157 3 422 8 590 11
871 16 920 17 926 12 2 -3 7 -52 9 -109 3 -57 8 -149 11 -204 3 -55 7 -129 9
-165 1 -36 6 -119 10 -185 3 -66 8 -154 10 -195 2 -41 7 -122 10 -180 3 -58 8
-148 11 -200 5 -88 8 -135 12 -152 1 -4 91 -7 200 -8 108 -1 342 -3 520 -6
251 -3 322 -1 323 9 1 6 2 37 4 67 3 72 15 304 21 400 2 41 6 120 9 175 3 55
7 138 10 185 3 47 7 139 11 205 3 66 7 156 10 200 2 44 6 125 8 180 3 55 7
152 11 215 3 63 8 162 11 220 2 58 7 152 10 210 2 58 6 155 9 215 2 61 6 155
9 210 28 510 28 1061 1 1185 -3 14 -8 39 -10 55 -11 97 -57 264 -105 385 -18
47 -82 168 -123 235 -71 116 -244 279 -382 361 -158 94 -395 173 -600 199 -22
3 -56 7 -75 10 -35 4 -100 9 -265 21 -157 11 -302 24 -440 40 -103 12 -285 24
-285 18z"/>
<path d="M4185 2340 c-6 -14 -71 -303 -81 -360 -3 -14 -7 -33 -10 -42 -5 -16
-10 -40 -20 -87 -3 -12 -11 -51 -19 -85 -8 -33 -17 -75 -20 -93 -3 -18 -9 -43
-15 -57 -5 -15 -8 -26 -5 -26 2 0 -1 -15 -6 -32 -5 -18 -12 -51 -15 -73 -4
-22 -10 -48 -15 -57 -6 -10 -8 -18 -5 -18 3 0 1 -13 -4 -30 l-9 -30 52 -1
c282 -4 524 -10 535 -14 6 -2 12 1 13 8 0 7 2 19 4 27 7 34 16 98 21 140 2 25
7 56 10 70 3 14 7 43 9 65 3 22 6 49 9 60 2 11 7 45 11 75 4 30 9 64 11 75 5
25 21 134 29 200 4 28 8 57 10 65 2 8 7 35 10 60 3 25 8 56 10 70 3 14 7 43
10 65 l5 40 -260 0 c-223 0 -261 -2 -265 -15z"/>
<path d="M5834 2349 c-2 -3 -1 -26 1 -50 3 -24 7 -80 10 -124 3 -44 7 -109 10
-145 3 -36 7 -99 10 -140 3 -41 8 -106 11 -145 3 -38 7 -95 9 -125 1 -30 6
-98 10 -150 5 -52 9 -105 9 -117 1 -12 5 -25 9 -29 3 -4 66 -8 139 -9 73 -2
202 -4 286 -6 124 -2 155 0 162 11 5 8 7 17 4 21 -2 4 -6 49 -10 100 -3 52 -7
114 -9 139 -1 25 -6 92 -10 150 -4 58 -8 121 -10 140 -3 31 -8 102 -22 295 -2
33 -5 80 -7 105 -2 25 -4 54 -5 65 -1 20 -8 20 -297 20 -163 0 -298 -3 -300
-6z"/>
</g>
</svg>
